<svg xmlns="http://www.w3.org/2000/svg" width="195" height="179"><path fill="#fcfcfb" d="M0 0h195v179H0z"/><path fill="#5eb746" d="M130.457 27.023 132 28c-1.507 4.113-3.979 5.44-7.625 7.688-3.973 2.668-3.973 2.668-6.238 6.69-.116 3.696.494 5.992 2.363 9.185 2.76 1.586 5.056 2.357 8.27 2.23 5.892-2.095 9.885-8.775 13.23-13.793l3 1c2.522 5.176 2.2 10.386 2 16h-2l-.3 1.742c-.84 2.708-2.042 4.24-3.887 6.383l-1.731 2.07c-4.5 3.9-9.117 3.908-14.832 3.805-5.708.348-8.491 1.335-12.562 5.375A174 174 0 0 0 107 82l-2.227 2.617C102.461 87.371 100.23 90.18 98 93q-1.38 1.695-2.762 3.387c-7.307 9.013-13.162 18.278-18.213 28.746C72.923 133.605 68.865 141.688 60 146q-2 .998-4 2c-9.725-7.313-20.106-15.99-24-28 .991-4.707 4.24-7.945 7.438-11.375l1.614-1.734c4.988-5.193 10.784-10.566 17.93-12.4C66.508 92.54 70.739 88.03 76 82.5l2.662-2.733C84.44 73.785 90.117 67.748 95 61l2.195-2.8c2.138-3.79 2.233-6.793 2.18-11.013.189-7.178 1.468-12.03 6.625-17.187 6.11-5.33 16.981-6.09 24.457-2.977"/><path fill="#209ac6" d="M80 6c1.8 2.082 1.8 2.082 3.313 4.813l1.55 2.707C86 16 86 16 86 19l-2.484-.176c-6.655-.494-6.655-.494-12.329 2.426-1.331 2.548-1.331 2.548-1.124 4.688L71 28l1.25 3.188c1.468 2.962 1.468 2.962 4.125 3.812 3.02 0 4.85-.85 7.625-2 3.313-.125 3.313-.125 6 0-.037 8.78-2.69 15.386-8.715 21.836-3.401 1.733-6.421.99-10.035.352-.697-.11-1.395-.218-2.113-.33-1.715-.27-3.426-.562-5.137-.858l-.8 1.828c-1.248 2.259-2.403 3.319-4.388 4.922-1.881 1.804-2.742 2.659-3.05 5.273.344 3.036.964 5.443 2.363 8.165 1.29 2.67.82 4.029-.125 6.812-2.398 2.02-2.398 2.02-5.375 3.813l-2.96 1.832C47 88 47 88 44 88l-1.687-3c-1.904-3.152-1.904-3.152-4.348-3.398-2.476-.007-2.476-.007-5.965.398l-3 6c-6.308-.485-6.308-.485-9.227-2.656-2.992-3.955-2-7.582-1.523-12.324C19.65 64.288 23.249 55.412 28 48l1.695.965C33.745 50.784 37.673 50.87 42 50c2.958-1.831 4.625-3.807 6-7 .234-3.166-.235-5.933-1-9l-.434-2.145C46.091 29.778 46.091 29.778 44 28l10-8C36.55 30.802 23.207 48.68 18.095 68.682c-5.19 22.589-.688 45.13 11.093 64.943C42.38 153.255 62.156 165.508 85 171c9.432 1.84 19.433 1.088 29 1-9.474 6.316-22.937 4.956-33.706 2.972C65.506 171.844 51.604 165.764 40 156l-2.793-2.27C21.758 140.54 12.443 121.92 9 102c-.926-13.727-.813-27.002 4-40l1.063-3.113c8.316-22.264 26.615-38.172 47.625-48.137C74.056 5.198 74.056 5.198 80 6"/><path fill="#f49326" d="M97 4c19.31-1.102 38.631 4.067 54 16l2.23 1.617C164.37 29.857 172.352 38.937 179 51l1.238 2.11c9.42 17.02 10.527 40.215 5.737 58.804-3.759 12.938-9.733 24.238-18.975 34.086l-2.043 2.316c-14.413 15.55-35.492 25.508-56.57 26.606L106 175v-1l3.191-.883c24.99-7.039 44.887-16.813 60.809-38.117l-1.54 1.637C155.9 148.7 137.089 162 119 162v-2c1.917-1.253 3.887-2.426 5.875-3.562 6.416-3.803 11.837-8.15 17.125-13.438l2.113-2.113c16.721-17.76 22.598-39.954 22.137-63.785-.232-6.313-1.293-12.095-3.25-18.102l-1.031-3.254C159.135 47.636 155.072 40.903 150 34l-2.312-3.187C134.116 16.61 116.526 7.398 97 5z"/><path fill="#f28624" d="M136 81c3.59 2.018 6.768 4.457 10 7l2.828 2.14c7.025 5.42 7.025 5.42 8.172 8.86-.996 2.262-.996 2.262-2.437 4.688l-1.434 2.449L152 108h-2l-2-5-2 3-4-1 2 5c-4.625 5.875-4.625 5.875-8 7l1.473 1.168c2.568 3.08 1.994 6.267 1.863 10.125-.837 6.743-6.278 10.708-10.899 15.207-2.549 2.615-4.836 5.343-7.125 8.188l-2.285 2.78c-1.98 2.403-1.98 2.403-3.398 4.563-1.467 1.938-2.43 2.9-4.629 3.969-11.928 1.548-23.826-.839-35.187-4.375l-2.002-.596c-4.517-1.498-4.517-1.498-5.909-4.013.158-3.262 2.56-4.624 4.828-6.735 2.692-2.706 5.01-5.637 7.332-8.656 5.947-7.692 12.124-15.182 18.324-22.67 3-3.634 5.97-7.293 8.942-10.951 3.306-3.963 3.306-3.963 6.984-4.379 4.199.427 5.708 1.485 8.688 4.375l2.188-2.812c1.824-2.22 3.027-3.315 5.562-4.813 2.365-1.166 2.365-1.166 3.188-3.312.082-2.721-.312-3.864-1.938-6.063-3.11-.707-3.11-.707-6.625-.75l-3.602-.172L119 87v-2c11.341-5.112 11.341-5.112 17-4"/><path fill="#1987b8" d="M51.25 17.313 53 18c-1.177 3.53-2.174 4.11-5.125 6.25C30 37.84 19.105 57.902 16 80c-2.353 22.078 5.718 44.947 19.434 62.031 13.254 15.557 33.744 27.106 54.191 29.719 8.092.58 16.268.325 24.375.25-9.474 6.316-22.937 4.956-33.706 2.972C65.506 171.844 51.604 165.764 40 156l-2.793-2.27C21.758 140.54 12.443 121.92 9 102c-.926-13.727-.813-27.002 4-40l1.063-3.113C20.07 42.803 31.653 30.363 45 20l2.191-1.781C49 17 49 17 51.25 17.312"/><path fill="#f8ab2e" d="M136 81c3.59 2.018 6.768 4.457 10 7l2.828 2.14c7.025 5.42 7.025 5.42 8.172 8.86-.996 2.262-.996 2.262-2.437 4.688l-1.434 2.449L152 108h-2l-2-5-2 3-1.562-.437c-2.585-.647-2.585-.647-5.875-.938-3.56-.624-5.629-1.58-8.563-3.625l-4 3-2-1c2.128-2.286 3.945-3.97 6.688-5.5 2.413-1.282 2.413-1.282 3.25-3.437.082-2.721-.312-3.864-1.938-6.063-3.11-.707-3.11-.707-6.625-.75l-3.602-.172L119 87v-2c11.341-5.112 11.341-5.112 17-4"/><path fill="#edf7fa" d="m53 19 2 1-10 8 2 2c1.723 5.35 2.639 9.47 1 15-1.61 2.69-3.26 4.457-6 6-5.143.915-9.438.607-14-2-4.66 9.855-8.013 18.775-9.57 29.594C18 81 18 81 17 82a145 145 0 0 0-.562 6.063l-.254 3.347L16 94h-1c-1.363-23.545 6.745-43.353 22-61 4.897-5.385 9.923-9.992 16-14"/><path fill="#f16735" d="m162 145 1 2 2 1c-13.192 14.801-33.58 25.207-53.312 26.75-1.896.099-3.791.188-5.688.25v-1l3.191-.883C129.631 167.36 146.655 159.956 162 145"/><path fill="#c5e1ed" d="m27 46 2 2-1.207 2.309c-4.858 9.467-7.847 17.749-9.363 28.285C18 81 18 81 17 82a145 145 0 0 0-.562 6.063l-.254 3.347L16 94h-1c-1.032-17.828 3.332-32.558 12-48"/><path fill="#ef6228" d="m162 145 1 2 2 1c-5.528 6.229-11.99 10.569-19 15l-1-2c1.125-3.376 1.75-3.79 4.563-5.75 4.39-3.16 8.417-6.636 12.437-10.25"/><path fill="#fdcb55" d="M97 4c8.27-.214 15.962-.074 24 2l-2 1v3l-3.29-.84-4.335-1.098-2.16-.552C105.16 6.487 101.14 5.62 97 5z"/><path fill="#d86b43" d="M126 169v3c-13.633 3.444-13.633 3.444-20 3v-1q4.154-1.256 8.313-2.5l2.38-.723 2.295-.683 2.11-.635C123 169 123 169 126 169"/><path fill="#d2e7ee" d="M18 68h1q.079 2.374.125 4.75l.07 2.672C18.986 78.18 18.221 79.559 17 82a88 88 0 0 0-.625 6.25l-.227 3.266L16 94h-1c-.224-8.507-.202-16.724 2-25z"/><path fill="#4e82aa" d="M114 172c-5.998 3.998-11.976 4.28-18.937 4.125l-2.362-.027c-1.9-.024-3.8-.06-5.701-.098v-1h15v-2c4.053-.982 7.839-1.082 12-1"/><path fill="#faa227" d="M154 99c.688 1.688.688 1.688 1 4-1.312 2.75-1.312 2.75-3 5h-2c-.25-2.25-.25-2.25 0-5 2-2.312 2-2.312 4-4"/><path fill="#ea5c2f" d="M134 167c-2 3-2 3-5.125 3.688L126 171v-3c4.625-2.125 4.625-2.125 8-1"/><path fill="#ee6a45" d="m126 156 2 1c-1.933 2.025-3.632 3.421-6 5h-3v-2c5.273-3.223 5.273-3.223 7-4"/><path fill="#f9d8c0" d="M170 133c0 4.39-2.128 5.77-5 9l-3-1z"/><path fill="#fdc43b" d="M114 6h7l-2 1v3l-5-1z"/></svg>